# xmcd
#
# Track frame offsets:
#	150
#	13522
#	25070
#	37405
#	49462
#	63450
#	75097
#	90157
#	102267
#	116302
#	128272
#	142947
#
# Disc length: 2043 seconds
#
# Revision: 2
# Processed by: cddbd v1.5.1PL0 Copyright (c) Steve Scherf et al.
# Submitted via: audiograbber 1.83.01
#
DISCID=8707f90c
DTITLE=Country Ladies - Country Ladies
DYEAR=1900
DGENRE=Country
TTITLE0=Lynn Anderson - Rose Garden
TTITLE1=Donna Fargo - The Happiest Girl In The Whole U.s.a.
TTITLE2=Jeanne Pruett - Satin Sheets
TTITLE3=Wanda Jackson - Right Or Wrong
TTITLE4=Jeannie Seely - Don't Touch Me
TTITLE5=Sammi Smith - Help Me Make It Through The Night
TTITLE6=Jeannie C Riley - Harper Valley P.t.a.
TTITLE7=Jody Miller - Queen Of The House
TTITLE8=Barbara Fairchild - Teddy Bear Song
TTITLE9=Sketter Davis - The End Of The World
TTITLE10=Marion Worth - Shake Me I Rattle (Squeeze Me I Cry)
TTITLE11=Connie Smith - Once A Day
EXTD=
EXTT0=
EXTT1=
EXTT2=
EXTT3=
EXTT4=
EXTT5=
EXTT6=
EXTT7=
EXTT8=
EXTT9=
EXTT10=
EXTT11=
PLAYORDER=
